<svg width="40" height="40" viewBox="0 0 40 40" fill="none" xmlns="http://www.w3.org/2000/svg">
<g filter="url(#filter0_d_112_190)">
<rect x="4.5" y="0.5" width="31" height="31" rx="11.5" fill="white"/>
<rect x="4.5" y="0.5" width="31" height="31" rx="11.5" stroke="url(#paint0_linear_112_190)"/>
<path d="M14.9004 8.13295C14.4215 7.63567 13.6302 7.62074 13.1329 8.0996C12.6357 8.57846 12.6207 9.36977 13.0996 9.86705L14.9004 8.13295ZM19.5996 16.6171C20.0785 17.1143 20.8698 17.1293 21.3671 16.6504C21.8643 16.1715 21.8793 15.3802 21.4004 14.8829L19.5996 16.6171ZM21.4004 14.8829C20.9215 14.3857 20.1302 14.3707 19.6329 14.8496C19.1357 15.3285 19.1207 16.1198 19.5996 16.6171L21.4004 14.8829ZM26.0996 23.3671C26.5785 23.8643 27.3698 23.8793 27.8671 23.4004C28.3643 22.9215 28.3793 22.1302 27.9004 21.6329L26.0996 23.3671ZM21.4004 16.6171C21.8793 16.1198 21.8643 15.3285 21.3671 14.8496C20.8698 14.3707 20.0785 14.3857 19.5996 14.8829L21.4004 16.6171ZM13.0996 21.6329C12.6207 22.1302 12.6357 22.9215 13.1329 23.4004C13.6302 23.8793 14.4215 23.8643 14.9004 23.3671L13.0996 21.6329ZM19.5996 14.8829C19.1207 15.3802 19.1357 16.1715 19.6329 16.6504C20.1302 17.1293 20.9215 17.1143 21.4004 16.6171L19.5996 14.8829ZM27.9004 9.86705C28.3793 9.36977 28.3643 8.57846 27.8671 8.0996C27.3698 7.62074 26.5785 7.63567 26.0996 8.13295L27.9004 9.86705ZM13.0996 9.86705L19.5996 16.6171L21.4004 14.8829L14.9004 8.13295L13.0996 9.86705ZM19.5996 16.6171L26.0996 23.3671L27.9004 21.6329L21.4004 14.8829L19.5996 16.6171ZM19.5996 14.8829L13.0996 21.6329L14.9004 23.3671L21.4004 16.6171L19.5996 14.8829ZM21.4004 16.6171L27.9004 9.86705L26.0996 8.13295L19.5996 14.8829L21.4004 16.6171Z" fill="#FF0000"/>
</g>
<defs>
<filter id="filter0_d_112_190" x="0" y="0" width="40" height="40" filterUnits="userSpaceOnUse" color-interpolation-filters="sRGB">
<feFlood flood-opacity="0" result="BackgroundImageFix"/>
<feColorMatrix in="SourceAlpha" type="matrix" values="0 0 0 0 0 0 0 0 0 0 0 0 0 0 0 0 0 0 127 0" result="hardAlpha"/>
<feOffset dy="4"/>
<feGaussianBlur stdDeviation="2"/>
<feComposite in2="hardAlpha" operator="out"/>
<feColorMatrix type="matrix" values="0 0 0 0 0 0 0 0 0 0 0 0 0 0 0 0 0 0 0.25 0"/>
<feBlend mode="normal" in2="BackgroundImageFix" result="effect1_dropShadow_112_190"/>
<feBlend mode="normal" in="SourceGraphic" in2="effect1_dropShadow_112_190" result="shape"/>
</filter>
<linearGradient id="paint0_linear_112_190" x1="3" y1="1.67638e-07" x2="33" y2="27" gradientUnits="userSpaceOnUse">
<stop stop-color="#FE0000"/>
<stop offset="1" stop-color="white"/>
</linearGradient>
</defs>
</svg>
